<svg width="17" height="18" viewBox="0 0 17 18" fill="none" xmlns="http://www.w3.org/2000/svg">
<path d="M7.53812 1.38328C7.81353 0.414566 9.18647 0.414565 9.46188 1.38328L10.6508 5.56526C10.7731 5.99519 11.1658 6.2918 11.6127 6.2918H15.7164C16.6526 6.2918 17.0755 7.4631 16.3552 8.06115L12.8156 11.0002C12.5109 11.2532 12.3842 11.6621 12.4925 12.0431L13.789 16.6033C14.0578 17.5486 12.9444 18.2739 12.1883 17.6461L9.13882 15.114C8.76846 14.8065 8.23154 14.8065 7.86118 15.114L4.8117 17.6461C4.05558 18.2739 2.94223 17.5486 3.211 16.6033L4.50749 12.0431C4.61579 11.6621 4.4891 11.2532 4.18443 11.0002L0.644802 8.06115C-0.0754519 7.4631 0.347445 6.2918 1.28362 6.2918H5.38728C5.83424 6.2918 6.22693 5.99519 6.34916 5.56526L7.53812 1.38328Z" fill="#FCD9BA"/>
</svg>
